# xmcd
#
# Track frame offsets:
#	150
#	15397
#	33951
#	52388
#	66767
#	82651
#	97585
#	114666
#	130270
#	149723
#	167143
#	183859
#	198083
#	214231
#	231845
#	247670
#	261890
#	278575
#	297137
#	314306
#	327008
#
# Disc length: 4529 seconds
#
# Revision: 0
# Processed by: cddbd v1.5.2PL0 Copyright (c) Steve Scherf et al.
# Submitted via: audiograbber 1.83.01
#
DISCID=1f11af15
DTITLE=Steve Wariner - The Best Of
DYEAR=1998
DGENRE=Country
TTITLE0=The Flower That Shattered The Stone
TTITLE1=Some Fools Never Learn
TTITLE2=You Can Dream Of Me
TTITLE3=What I Didn't Do
TTITLE4=Heart Trouble
TTITLE5=Life's Highway
TTITLE6=Small Town Girl
TTITLE7=That's How You Know When Love's Right
TTITLE8=Starting Over Again
TTITLE9=The Weekend
TTITLE10=Hey Alarm Clock
TTITLE11=Lynda
TTITLE12=Where Did I Go Wrong
TTITLE13=I Got Dreams
TTITLE14=I Should Be With You
TTITLE15=The Hand That Rocks The Cradle
TTITLE16=Baby I'm Yours
TTITLE17=Hold ON (A Little Longer)
TTITLE18=When I Could Come Home To You
TTITLE19=Precious Thing
TTITLE20=L-O-V-E Love
EXTD=Import
EXTT0=
EXTT1=
EXTT2=
EXTT3=
EXTT4=
EXTT5=
EXTT6=
EXTT7=
EXTT8=
EXTT9=
EXTT10=
EXTT11=
EXTT12=
EXTT13=
EXTT14=
EXTT15=
EXTT16=
EXTT17=
EXTT18=
EXTT19=
EXTT20=
PLAYORDER=
